<?xml version="1.0" encoding="UTF-8"?>
<svg xmlns="http://www.w3.org/2000/svg" xmlns:xlink="http://www.w3.org/1999/xlink" width="95px" height="95px" viewBox="0 0 95 95" version="1.1">
<g id="surface1">
<path style=" stroke:none;fill-rule:nonzero;fill:rgb(0%,0%,0%);fill-opacity:1;" d="M 0.1875 59.5625 C 0.1875 39.777344 0.1875 19.992188 0.1875 0.195312 C 31.832031 0.195312 63.480469 0.195312 95.1875 0.195312 C 95.1875 20.660156 95.1875 41.136719 95.109375 61.703125 C 94.96875 61.695312 94.871094 61.609375 94.84375 61.503906 C 94.398438 59.765625 94.105469 57.976562 93.492188 56.300781 C 92.410156 53.335938 90.71875 50.71875 88.300781 48.542969 C 87.8125 48.085938 87.359375 47.679688 86.898438 47.28125 C 83.125 44.058594 78.695312 42.378906 73.796875 42.160156 C 69.546875 41.972656 65.28125 42.132812 60.9375 42.140625 C 57.824219 42.136719 54.796875 42.132812 51.769531 42.042969 C 51.769531 39.4375 51.753906 36.917969 51.777344 34.398438 C 51.785156 33.601562 51.5 32.992188 50.773438 32.730469 C 50.21875 32.53125 49.59375 32.527344 48.992188 32.351562 C 48.988281 28.714844 48.976562 25.160156 48.992188 21.605469 C 48.996094 20.390625 49.882812 19.476562 50.960938 19.484375 C 52.140625 19.492188 52.867188 20.285156 52.878906 21.589844 C 52.886719 22.207031 52.789062 22.84375 52.902344 23.4375 C 53.0625 24.265625 53.21875 25.15625 53.644531 25.859375 C 54.890625 27.902344 56.773438 28.585938 59.140625 28.222656 C 61.414062 27.875 63.261719 25.9375 63.269531 23.648438 C 63.277344 19.195312 63.273438 14.746094 63.269531 10.292969 C 63.269531 9.074219 62.910156 8.714844 61.757812 8.722656 C 60.660156 8.730469 60.316406 9.085938 60.304688 10.257812 C 60.296875 10.816406 60.304688 11.371094 60.304688 11.925781 C 60.304688 15.574219 60.308594 19.222656 60.296875 22.871094 C 60.292969 24.128906 59.660156 24.976562 58.617188 25.214844 C 57.605469 25.441406 56.507812 24.960938 56.203125 23.988281 C 56 23.335938 56.03125 22.59375 56.042969 21.894531 C 56.074219 20.089844 55.5 18.5625 54.066406 17.429688 C 52.476562 16.175781 50.691406 16.054688 48.855469 16.75 C 47.304688 17.339844 46.015625 19.324219 46.015625 20.953125 C 46.011719 24.785156 46.011719 28.617188 45.933594 32.457031 C 44.582031 32.25 43.484375 33.453125 43.578125 34.691406 C 43.695312 36.230469 43.621094 37.78125 43.621094 39.414062 C 43.609375 40.375 43.605469 41.253906 43.515625 42.132812 C 40.277344 42.136719 37.125 42.140625 33.886719 42.125 C 31.144531 42.113281 28.484375 42.070312 25.832031 42.132812 C 23.378906 42.191406 20.910156 42.210938 18.484375 42.523438 C 14.128906 43.082031 10.402344 45.117188 7.179688 48.039062 C 3.832031 51.070312 1.652344 54.824219 0.542969 59.203125 C 0.507812 59.34375 0.308594 59.441406 0.1875 59.5625 Z M 0.1875 59.5625 "/>
<path style=" stroke:none;fill-rule:nonzero;fill:rgb(45.882353%,45.882353%,45.490196%);fill-opacity:1;" d="M 61.023438 42.140625 C 65.28125 42.132812 69.546875 41.972656 73.796875 42.160156 C 78.695312 42.378906 83.125 44.058594 86.898438 47.28125 C 87.359375 47.679688 87.8125 48.085938 88.304688 48.613281 C 88.425781 48.964844 88.492188 49.203125 88.59375 49.425781 C 90.4375 53.429688 91.125 57.609375 90.539062 61.988281 C 89.859375 67.109375 87.65625 71.511719 83.964844 75.082031 C 79.546875 79.359375 74.160156 81.4375 68.007812 81.441406 C 51.527344 81.460938 35.046875 81.457031 18.5625 81.445312 C 13.289062 81.441406 8.523438 79.90625 4.339844 76.640625 C 3.835938 76.246094 3.296875 75.894531 2.71875 75.488281 C 1.960938 73.609375 1.261719 71.765625 0.546875 69.933594 C 0.488281 69.789062 0.308594 69.695312 0.1875 69.578125 C 0.1875 66.296875 0.1875 63.015625 0.1875 59.648438 C 0.308594 59.441406 0.507812 59.34375 0.542969 59.203125 C 1.652344 54.824219 3.832031 51.070312 7.179688 48.039062 C 10.402344 45.117188 14.128906 43.082031 18.484375 42.523438 C 20.910156 42.210938 23.378906 42.191406 25.832031 42.132812 C 28.484375 42.070312 31.144531 42.113281 33.882812 42.1875 C 33.988281 42.324219 33.992188 42.398438 34.03125 42.4375 C 36.101562 44.519531 38.164062 46.609375 40.261719 48.664062 C 40.488281 48.882812 40.921875 48.96875 41.257812 48.972656 C 45.402344 48.992188 49.542969 49 53.683594 48.960938 C 54.117188 48.957031 54.648438 48.738281 54.960938 48.441406 C 56.851562 46.617188 58.695312 44.746094 60.542969 42.878906 C 60.746094 42.675781 60.867188 42.390625 61.023438 42.140625 M 29.914062 61.707031 C 29.890625 59.945312 30.125 60.179688 28.402344 60.164062 C 27.117188 60.152344 25.832031 60.160156 24.441406 60.160156 C 24.441406 58.515625 24.425781 57.007812 24.449219 55.5 C 24.460938 54.945312 24.28125 54.734375 23.707031 54.746094 C 22.378906 54.78125 21.050781 54.757812 19.71875 54.757812 C 18.992188 54.757812 18.265625 54.757812 17.4375 54.757812 C 17.4375 56.625 17.4375 58.339844 17.4375 60.160156 C 15.832031 60.160156 14.324219 60.1875 12.816406 60.148438 C 12.183594 60.132812 11.929688 60.324219 11.957031 60.984375 C 12 62.0625 11.96875 63.144531 11.96875 64.226562 C 11.96875 65.175781 11.96875 66.125 11.96875 67.167969 C 13.863281 67.167969 15.609375 67.167969 17.484375 67.167969 C 17.484375 69.003906 17.484375 70.742188 17.484375 72.480469 C 19.855469 72.480469 22.097656 72.480469 24.476562 72.480469 C 24.476562 70.683594 24.476562 68.945312 24.476562 67.09375 C 26.359375 67.09375 28.101562 67.09375 29.824219 67.09375 C 29.867188 66.890625 29.902344 66.800781 29.902344 66.710938 C 29.90625 65.105469 29.910156 63.496094 29.914062 61.707031 M 76.332031 56.023438 C 75.148438 57.53125 74.988281 59.199219 75.890625 60.660156 C 76.710938 61.988281 78.296875 62.714844 79.78125 62.445312 C 81.4375 62.140625 82.683594 60.917969 82.949219 59.34375 C 83.234375 57.648438 82.492188 56.070312 81.03125 55.261719 C 79.507812 54.417969 77.878906 54.652344 76.332031 56.023438 M 70.207031 65.109375 C 68.222656 64.464844 66.425781 65.054688 65.445312 66.675781 C 64.535156 68.175781 64.75 70.160156 65.996094 71.375 C 67.164062 72.511719 68.558594 72.855469 70.089844 72.273438 C 71.539062 71.726562 72.410156 70.640625 72.554688 69.082031 C 72.71875 67.289062 71.933594 65.984375 70.207031 65.109375 M 42.851562 70.476562 C 43.402344 70.074219 43.738281 69.511719 43.4375 68.882812 C 43.238281 68.464844 42.765625 67.929688 42.375 67.898438 C 40.964844 67.78125 39.535156 67.796875 38.121094 67.878906 C 37.386719 67.925781 36.996094 68.527344 36.988281 69.25 C 36.984375 69.976562 37.398438 70.605469 38.109375 70.632812 C 39.640625 70.695312 41.179688 70.582031 42.851562 70.476562 M 55.730469 70.703125 C 55.945312 70.703125 56.164062 70.707031 56.378906 70.699219 C 57.359375 70.664062 57.988281 70.128906 58.023438 69.304688 C 58.058594 68.457031 57.402344 67.832031 56.386719 67.808594 C 55.273438 67.78125 54.164062 67.78125 53.054688 67.808594 C 52.082031 67.835938 51.457031 68.433594 51.460938 69.253906 C 51.464844 70.085938 52.09375 70.671875 53.054688 70.695312 C 53.886719 70.71875 54.71875 70.703125 55.730469 70.703125 Z M 55.730469 70.703125 "/>
<path style=" stroke:none;fill-rule:nonzero;fill:rgb(0%,0%,0%);fill-opacity:1;" d="M 0.1875 69.667969 C 0.308594 69.695312 0.488281 69.789062 0.546875 69.933594 C 1.261719 71.765625 1.960938 73.609375 2.722656 75.554688 C 3.953125 77.253906 4.96875 79.007812 6.347656 80.40625 C 7.746094 81.828125 9.40625 83.0625 11.121094 84.09375 C 14.175781 85.925781 17.53125 87.011719 21.132812 87.015625 C 38.6875 87.039062 56.242188 87.027344 73.792969 87.015625 C 74.464844 87.015625 75.140625 86.941406 75.804688 86.847656 C 81.300781 86.089844 85.863281 83.601562 89.527344 79.433594 C 92.441406 76.125 94.203125 72.304688 94.839844 67.949219 C 94.863281 67.796875 95.066406 67.675781 95.1875 67.539062 C 95.1875 76.75 95.1875 85.960938 95.1875 95.179688 C 63.542969 95.179688 31.898438 95.179688 0.1875 95.179688 C 0.1875 86.707031 0.1875 78.230469 0.1875 69.667969 Z M 0.1875 69.667969 "/>
<path style=" stroke:none;fill-rule:nonzero;fill:rgb(33.725491%,33.725491%,33.725491%);fill-opacity:1;" d="M 95.1875 67.453125 C 95.066406 67.675781 94.863281 67.796875 94.839844 67.949219 C 94.203125 72.304688 92.441406 76.125 89.527344 79.433594 C 85.863281 83.601562 81.300781 86.089844 75.804688 86.847656 C 75.140625 86.941406 74.464844 87.015625 73.792969 87.015625 C 56.242188 87.027344 38.6875 87.039062 21.132812 87.015625 C 17.53125 87.011719 14.175781 85.925781 11.121094 84.09375 C 9.40625 83.0625 7.746094 81.828125 6.347656 80.40625 C 4.96875 79.007812 3.953125 77.253906 2.773438 75.59375 C 3.296875 75.894531 3.835938 76.246094 4.339844 76.640625 C 8.523438 79.90625 13.289062 81.441406 18.5625 81.445312 C 35.046875 81.457031 51.527344 81.460938 68.007812 81.441406 C 74.160156 81.4375 79.546875 79.359375 83.964844 75.082031 C 87.65625 71.511719 89.859375 67.109375 90.539062 61.988281 C 91.125 57.609375 90.4375 53.429688 88.59375 49.425781 C 88.492188 49.203125 88.425781 48.964844 88.335938 48.664062 C 90.71875 50.71875 92.410156 53.335938 93.492188 56.300781 C 94.105469 57.976562 94.398438 59.765625 94.84375 61.503906 C 94.871094 61.609375 94.96875 61.695312 95.109375 61.789062 C 95.1875 63.644531 95.1875 65.503906 95.1875 67.453125 Z M 95.1875 67.453125 "/>
<path style=" stroke:none;fill-rule:nonzero;fill:rgb(33.725491%,33.725491%,33.725491%);fill-opacity:1;" d="M 46.011719 32.449219 C 46.011719 28.617188 46.011719 24.785156 46.015625 20.953125 C 46.015625 19.324219 47.304688 17.339844 48.855469 16.75 C 50.691406 16.054688 52.476562 16.175781 54.066406 17.429688 C 55.5 18.5625 56.074219 20.089844 56.042969 21.894531 C 56.03125 22.59375 56 23.335938 56.203125 23.988281 C 56.507812 24.960938 57.605469 25.441406 58.617188 25.214844 C 59.660156 24.976562 60.292969 24.128906 60.296875 22.871094 C 60.308594 19.222656 60.304688 15.574219 60.304688 11.925781 C 60.304688 11.371094 60.296875 10.816406 60.304688 10.257812 C 60.316406 9.085938 60.660156 8.730469 61.757812 8.722656 C 62.910156 8.714844 63.269531 9.074219 63.269531 10.292969 C 63.273438 14.746094 63.277344 19.195312 63.269531 23.648438 C 63.261719 25.9375 61.414062 27.875 59.140625 28.222656 C 56.773438 28.585938 54.890625 27.902344 53.644531 25.859375 C 53.21875 25.15625 53.0625 24.265625 52.902344 23.4375 C 52.789062 22.84375 52.886719 22.207031 52.878906 21.589844 C 52.867188 20.285156 52.140625 19.492188 50.960938 19.484375 C 49.882812 19.476562 48.996094 20.390625 48.992188 21.605469 C 48.976562 25.160156 48.988281 28.714844 48.992188 32.394531 C 48.996094 32.523438 48.992188 32.605469 48.90625 32.613281 C 47.882812 32.566406 46.945312 32.507812 46.011719 32.449219 Z M 46.011719 32.449219 "/>
<path style=" stroke:none;fill-rule:nonzero;fill:rgb(87.843138%,91.764706%,93.333334%);fill-opacity:1;" d="M 60.9375 42.140625 C 60.867188 42.390625 60.746094 42.675781 60.542969 42.878906 C 58.695312 44.746094 56.851562 46.617188 54.960938 48.441406 C 54.648438 48.738281 54.117188 48.957031 53.683594 48.960938 C 49.542969 49 45.402344 48.992188 41.257812 48.972656 C 40.921875 48.96875 40.488281 48.882812 40.261719 48.664062 C 38.164062 46.609375 36.101562 44.519531 34.03125 42.4375 C 33.992188 42.398438 33.988281 42.324219 33.972656 42.207031 C 37.125 42.140625 40.277344 42.136719 43.570312 42.191406 C 46.261719 42.257812 48.8125 42.273438 51.363281 42.277344 C 51.5 42.277344 51.632812 42.183594 51.769531 42.132812 C 54.796875 42.132812 57.824219 42.136719 60.9375 42.140625 Z M 60.9375 42.140625 "/>
<path style=" stroke:none;fill-rule:nonzero;fill:rgb(34.509805%,34.509805%,34.509805%);fill-opacity:1;" d="M 51.769531 42.042969 C 51.632812 42.183594 51.5 42.277344 51.363281 42.277344 C 48.8125 42.273438 46.261719 42.257812 43.65625 42.1875 C 43.605469 41.253906 43.609375 40.375 43.707031 39.414062 C 44.8125 39.328125 45.828125 39.355469 46.839844 39.320312 C 48.253906 39.277344 48.972656 38.53125 48.988281 37.117188 C 49.003906 35.613281 48.992188 34.109375 48.992188 32.605469 C 48.992188 32.605469 48.996094 32.523438 48.996094 32.480469 C 49.59375 32.527344 50.21875 32.53125 50.773438 32.730469 C 51.5 32.992188 51.785156 33.601562 51.777344 34.398438 C 51.753906 36.917969 51.769531 39.4375 51.769531 42.042969 Z M 51.769531 42.042969 "/>
<path style=" stroke:none;fill-rule:nonzero;fill:rgb(45.882353%,45.882353%,45.490196%);fill-opacity:1;" d="M 48.90625 32.613281 C 48.992188 34.109375 49.003906 35.613281 48.988281 37.117188 C 48.972656 38.53125 48.253906 39.277344 46.839844 39.320312 C 45.828125 39.355469 44.8125 39.328125 43.71875 39.328125 C 43.621094 37.78125 43.695312 36.230469 43.578125 34.691406 C 43.484375 33.453125 44.582031 32.25 45.933594 32.457031 C 46.945312 32.507812 47.882812 32.566406 48.90625 32.613281 Z M 48.90625 32.613281 "/>
<path style=" stroke:none;fill-rule:nonzero;fill:rgb(87.843138%,91.764706%,92.941177%);fill-opacity:1;" d="M 29.914062 61.800781 C 29.910156 63.496094 29.90625 65.105469 29.902344 66.710938 C 29.902344 66.800781 29.867188 66.890625 29.824219 67.09375 C 28.101562 67.09375 26.359375 67.09375 24.476562 67.09375 C 24.476562 68.945312 24.476562 70.683594 24.476562 72.480469 C 22.097656 72.480469 19.855469 72.480469 17.484375 72.480469 C 17.484375 70.742188 17.484375 69.003906 17.484375 67.167969 C 15.609375 67.167969 13.863281 67.167969 11.96875 67.167969 C 11.96875 66.125 11.96875 65.175781 11.96875 64.226562 C 11.96875 63.144531 12 62.0625 11.957031 60.984375 C 11.929688 60.324219 12.183594 60.132812 12.816406 60.148438 C 14.324219 60.1875 15.832031 60.160156 17.4375 60.160156 C 17.4375 58.339844 17.4375 56.625 17.4375 54.757812 C 18.265625 54.757812 18.992188 54.757812 19.71875 54.757812 C 21.050781 54.757812 22.378906 54.78125 23.707031 54.746094 C 24.28125 54.734375 24.460938 54.945312 24.449219 55.5 C 24.425781 57.007812 24.441406 58.515625 24.441406 60.160156 C 25.832031 60.160156 27.117188 60.152344 28.402344 60.164062 C 30.125 60.179688 29.890625 59.945312 29.914062 61.800781 Z M 29.914062 61.800781 "/>
<path style=" stroke:none;fill-rule:nonzero;fill:rgb(93.333334%,21.176471%,21.176471%);fill-opacity:1;" d="M 76.378906 55.972656 C 77.878906 54.652344 79.507812 54.417969 81.03125 55.261719 C 82.492188 56.070312 83.234375 57.648438 82.949219 59.34375 C 82.683594 60.917969 81.4375 62.140625 79.78125 62.445312 C 78.296875 62.714844 76.710938 61.988281 75.890625 60.660156 C 74.988281 59.199219 75.148438 57.53125 76.378906 55.972656 Z M 76.378906 55.972656 "/>
<path style=" stroke:none;fill-rule:nonzero;fill:rgb(99.607843%,82.745099%,20%);fill-opacity:1;" d="M 70.273438 65.136719 C 71.933594 65.984375 72.71875 67.289062 72.554688 69.082031 C 72.410156 70.640625 71.539062 71.726562 70.089844 72.273438 C 68.558594 72.855469 67.164062 72.511719 65.996094 71.375 C 64.75 70.160156 64.535156 68.175781 65.445312 66.675781 C 66.425781 65.054688 68.222656 64.464844 70.273438 65.136719 Z M 70.273438 65.136719 "/>
<path style=" stroke:none;fill-rule:nonzero;fill:rgb(86.666667%,90.588236%,92.156863%);fill-opacity:1;" d="M 42.78125 70.507812 C 41.179688 70.582031 39.640625 70.695312 38.109375 70.632812 C 37.398438 70.605469 36.984375 69.976562 36.988281 69.25 C 36.996094 68.527344 37.386719 67.925781 38.121094 67.878906 C 39.535156 67.796875 40.964844 67.78125 42.375 67.898438 C 42.765625 67.929688 43.238281 68.464844 43.4375 68.882812 C 43.738281 69.511719 43.402344 70.074219 42.78125 70.507812 Z M 42.78125 70.507812 "/>
<path style=" stroke:none;fill-rule:nonzero;fill:rgb(86.666667%,90.588236%,92.156863%);fill-opacity:1;" d="M 55.640625 70.703125 C 54.71875 70.703125 53.886719 70.71875 53.054688 70.695312 C 52.09375 70.671875 51.464844 70.085938 51.460938 69.253906 C 51.457031 68.433594 52.082031 67.835938 53.054688 67.808594 C 54.164062 67.78125 55.273438 67.78125 56.386719 67.808594 C 57.402344 67.832031 58.058594 68.457031 58.023438 69.304688 C 57.988281 70.128906 57.359375 70.664062 56.378906 70.699219 C 56.164062 70.707031 55.945312 70.703125 55.640625 70.703125 Z M 55.640625 70.703125 "/>
</g>
</svg>
